<svg xmlns="http://www.w3.org/2000/svg" width="1200" height="630" viewBox="0 0 1200 630"><title>Telegram Resolver - Bestiary OG Image</title><desc>Gothic bestiary Open Graph image for Telegram Resolver.</desc><defs><pattern id="a" width="3" height="3" patternUnits="userSpaceOnUse"><circle cx="1.5" cy="1.5" r=".8"/></pattern><filter id="b" width="100%" height="100%" x="0%" y="0%"><feTurbulence baseFrequency=".95" numOctaves="3" result="noise" type="fractalNoise"/><feColorMatrix values="0.33 0.33 0.33 0 0 0.33 0.33 0.33 0 0 0.33 0.33 0.33 0 0 0 0 0 0.28 0"/></filter></defs><path fill="#b4b4b4" d="M0 0h1200v630H0z"/><path fill="#141414" d="M411 111q-3-2-3-7 0-4 4-8 5-3 12-3t14 6q2 2 4 2 1 0 1-1h2v1q-5 4-8 4-2 0-4-1-8-7-13-7t-7 3q-2 2-2 5t1 5q2 2 4 2t3-1h1q1 0 1 1h-1q-2 1-5 1-2 0-4-2m-1 11v-1q4-4 7-4t5 3q8 8 13 8 3 0 6-2v-1q1 0 1 1-4 5-12 5-7 0-13-7-3-3-4-3t-2 1zm11-14q0-4 6-6h1v1q-1 1-1 2 0 2 3 5 4 3 4 6 0 4-6 7-1 0-1-1h1q1-1 1-2 0-2-4-5-4-4-4-7m22 8q0-8 7-11 4-2 6-2l3 10-10 4v1q0 2 1 3 2 4 5 4 2 0 4-1 1 0 1 1h-1q-3 3-7 5l-1 1v-1q0-1-1-1-7-4-7-13m5-2q0 1 1 2l5-2v-1l-3-7q-3 1-3 8m13-18q0-1 1-1l2 3q0 1 1 1v-1q4-5 10-5 1 0 1 1h-1q-6 0-6 7v22q0 2 2 2 1 0 2-1 0-1 1-1v2q-3 3-4 5v1q-1 0-1-1-3-3-6-4h-1 1q1-1 1-3v-19q0-4-3-8m15 20q0-8 7-11 3-2 5-2l3 10h1-1l-10 4v1q0 2 1 3 2 4 6 4 1 0 3-1 1 0 1 1-4 3-8 5 0 1-1 1v-1q0-1-1-1-6-4-6-13m5-2v2l5-2h1l-1-1-3-7q-2 1-2 8m18 14q-4-4-4-10t6-10q3-2 4-5h2q1 3 8 5v1q-3 3-3 6 0 4 3 9 1 3 1 6 0 7-8 9-2 1-4 1-5 0-7-3-1-1-1-2v-1q1-1 2-1 2 0 4 2 2 3 5 3h1q3-1 3-5t-2-8h-1l-7 5v1-1q0-1-2-2m1-12q0 5 3 9 1 1 2 1l1-1 2-1v-1q-1-3-1-5 0-3 3-6-4-1-6-4h-1q-3 4-3 8m18-7v-1q2-3 3-5h1l1 1q3 1 4 3v1l4-5h1l2 5h1q0 1-1 1l-2 3h-1l-2-4h-1l-1 1v14q0 2 1 2t2-1l1-1 1-1v2l-1 1q-2 3-4 5v1l-1-1q-3-3-6-4v-1q2 0 2-3v-12q0-2-2-2l-1 1zm23 19q-5-3-5-10 0-6 6-10 3-2 5-5h1q2 3 8 5v1q-2 1-2 2v13q0 1 2 1h1q0-1 1-1v1q-2 3-3 5 0 1-1 1v-1q-1 0-1-1-3-1-3-3h-1l-6 4-1 1v-1q0-1-1-2m0-12q0 5 3 9 1 1 2 1t1-1l2-1v-13q-2-1-4-3h-1q-3 4-3 8m18-7v-1q2-3 3-5h1q0 1 1 1 2 1 3 4h1l5-5h1q3 2 4 5l5-5h1q2 3 6 4l1 1h-1q-1 1-1 2v13q0 2 1 2t1-1h2q0 1-1 1-2 3-3 5v1q-1 0-1-1l-1-1q-3-1-3-5v-14l-1-1-2-2-3 2v13q0 2 2 3v1q-2 1-4 4v1q-1 0-1-1-1-3-3-4h-1v-1q2-1 2-3v-11q0-2-2-3 0-1-1-1v1l-2 1-1 1v12q0 2 2 3v1q-2 1-4 4v1l-1-1q-1-3-3-4v-1q1-1 1-3v-12q0-2-1-2t-1 1zm50 2q-2-3-2-7 0-5 3-8 4-3 9-3 6 0 10 5h1q3-5 8-5 6 0 8 8 0 2 1 2v-1h1v2l-8 5 1 1q1 0 1 1 1 3 2 7 1 5 2 7 1 1 2 1h2v1l-4 3q-1 1-3 1t-3-3q-2-2-3-7 0-5-1-7l-1-1h-2v-1l8-5v-1q-1-1-2-4-2-7-4-7t-3 3q-1 1-1 3v2q1 3 1 6 0 8-7 17-4 5-6 5-3 0-5-4-1-2-2-2t-1 1h-1v-1q3-4 6-4 2 0 4 3 1 2 3 2l1-1q3-4 3-11t-4-13q-3-3-7-3-3 0-5 2t-2 5 2 5q1 2 4 2t5-1h2q0 1-1 1-2 2-6 2t-6-3m43 5q0-8 7-11 3-2 5-2l3 10h1-1l-10 4v1q0 2 1 3 2 4 6 4 1 0 3-1 1 0 1 1-4 3-8 5 0 1-1 1v-1q0-1-1-1-6-4-6-13m5-2v2l5-2h1l-1-1-3-7q-2 1-2 8m18 6q-4-1-4-5 0-3 3-7l5-5h2q0 1 2 2t3 1q2 0 2-1l1-1q0-2-2-4-1-1-3-1h-4v-1h4q2 0 5 2 2 2 2 5t-4 5q-1 1-2 1v2q5 2 5 5t-4 7q-3 4-4 5l-1 1q-1 0-1-1l-2-2q-3-1-5-1h-1q-1 0-1-1h1l4-5zm-1-8q0 2 4 4h2l3-4q1 0 1-1h-1q-3-1-5-3h-1q-1 0-2 1t-1 3m3 9v1q3 1 6 3h1l1-1q2-1 2-2 0-3-5-5h-1l-1 1zm17 4v-1q1-1 1-2v-15h1q7-1 11-4h2q0 3 1 5 3 3 3 8 0 6-6 10l-4 4v1q-1 0-1-1-2-2-8-5m7-18v16q1 0 3 2h3q2-2 2-6 0-5-3-8l-2-4v-1h-1q-1 1-2 1m14-11q0-1 1-1l2 3 1 1v-1q4-5 10-5 1 0 1 1h-1q-5 0-5 7v22q0 2 1 2t2-1l1-1v2q-3 3-4 5v1q-1 0-1-1-3-3-6-4 1-1 1-3v-19q0-4-2-8zm15 10q0-3 5-7v-1q1 0 1 1v1q-2 1-2 3t1 4q1 0 2 1v1-1l8-5h1q0 1 1 2 5 4 5 10t-6 10q-3 2-5 5v1q-1 0-1-1-2-2-8-5h-1q0-1 1-1 2-2 2-6 0-5-3-8-1-2-1-4m7 15h-1q0 1 1 1 3 1 6 3v1l1-1q2-3 2-7 0-6-3-9-1-1-2-1h-1l-2 1v1q1 3 1 5 0 3-2 6m18-5q0-8 7-11 3-2 5-2l3 10h1-1l-10 4v1q0 2 1 3 2 4 6 4 1 0 3-1h1v1q-4 3-8 5v1q-1 0-1-1t-1-1q-6-4-6-13m5-2v2l5-2h1l-1-1-3-7q-2 1-2 8m13-5v-1q2-3 3-5h1q0 1 1 1 3 1 3 3v1h1l4-5h1l2 5v1l-3 3-2-4h-1l-1 1v14q0 2 1 2t2-1l1-1q0-1 1-1v2l-1 1q-3 3-4 5v1q-1 0-1-1-3-3-6-4h-1l1-1q1 0 1-3v-12q0-2-1-2t-1 1z"/><path stroke="#4b4b4b" stroke-width="2" d="M80 150h1040"/><path fill="#141414" d="M84 189h490v285H84z"/><path fill="#c3c3c3" stroke="#4b4b4b" stroke-width="2" d="M80 185h490v285H80z"/><path fill="none" stroke="#fff" d="M82 467.5V187h485.5"/><path fill="none" stroke="#000" d="M568 187.5V468H82.5"/><path fill="#141414" d="M107 230h-1zl1-1 1-1 2-8v-1h-3l-1 1v1h-1v-1l1-1v-1h10v3h-1v-2h-4v2l-2 7v1l1 1h-4m9 0v-1l3-9v-2h-1 1v-1h1v1l-2 8v1-1l2-2q0-1 1-1 1-1 2-1v1q1 0 1 1t-1 2v2q-1 1-2 1v1h-2v-1h1v1l1-1v-1q1 0 1-1v-2q1 0 1-1l-1-1q-1 0-1 1-1 0-1 1-1 0-1 1l-1 1q0 1-1 2v1zm10 0h-1l-1-1v-1q0-1 1-2 0-1 1-1 0-1 1-2h3v2h-1l-1 1h-2v3h2v-1h1l-1 1q0 1-1 1zm0-4h1q0-1 1-1h1v-2h-1l-1 1q0 1-1 1zm8 4h-1zl1-1q1 0 1-1l2-8v-1h-1v-1h4q1 0 2 1h1v3q-1 0-1 1h-2v1q1 0 1 1 1 0 1 2v1l-1 1q-1 1-2 1h-6m4 0q1 0 1-1h2v-1q1-1 1-2t-1-2h-3l-1 4v1h1zm1-7h2l1-1 1-1q0-1-1-2h-2zm7 7h-1v-1q-1 0-1-1t1-2q0-1 1-1 0-1 1-2h3q1 1 1 2l-1 1q0 1-1 2 0 1-1 2zm0 0q1 0 1-1 1 0 1-1l1-1v-4h-1l-1 1q-1 1-1 2v1q-1 1-1 2h1zm6 0h-1v-1h1l1-5h-1v-1h2v-2h1v2h2-1l-1 1h-1l-1 4v1h1v-1h1q0 1-1 1v1h-2m10 0h1q0-1 1-1v-1l3-8v-1h-3l-1 1-1 1v-2q1 0 1-1h10v1q-1 1-1 2v-2h-4v2l-2 7q-1 1 0 1l1 1h-5m11 0h-1l-1-1v-1q0-1 1-2v-1l2-2h3v3q0 1-1 2 0 1-1 2zm0 0q1 0 1-1l1-1 1-1v-4h-1l-1 1q-1 1-1 2v1q-1 1-1 2h1zm10 0h-1v-1l-1-1v-1h-1v1l-1 1v1h-1v-1l3-9v-2h-1 2v-1h1v1l-3 7h1q0-1 1-1l1-1h3q0 1-1 1 0 1-1 1 0 1-1 1t-1 1l1 2h1l1-1v1l-1 1zm-2-4h1q1 0 1-1h1v-2q-1 0-1 1h-1l-1 1zm7 4h-1l-1-1v-1q0-1 1-2 0-1 1-1 0-1 1-2h3v2h-1l-1 1h-2v1l-1 1q0 1 1 1h2v-1h1l-1 1-1 1zm0-4h1q0-1 1-1h1v-2h-1l-1 1q0 1-1 1zm5 4v-1l2-5h-2q1 0 1-1h2l-1 3v1-1l2-2q0-1 1-1h2v2l-2 3v1h2v-1h1l-1 1-1 1h-2v-1q0-1 1-2 0-1 1-2v-2h-1v1q-1 0-1 1h-1v2q-1 0-1 1-1 1-1 2zm11-5h-1v-1q1 0 1-1h1v2zm-2 5v-2h1l1 1-1 1zM108 249h442v45H108z"/><path fill="#0c0c0c" stroke="#4b4b4b" stroke-width="2" d="M104 245h442v45H104z"/><path fill="none" stroke="#fff" d="M106 287.5V247h437.5"/><path fill="none" stroke="#000" d="M544 247.5V288H106.5"/><path fill="#d8d8d8" d="M125 273h-2q-1-1-2-1v-2q0-1 1-2 0-1 1-1-1 0-1-1-1-1-1-2t1-1q0-1 1-1 1-1 2-1t2 1l1 1v3q-1 1-2 1l2 1q1 1 1 2t-1 2-3 1m0-2h1q1 0 1-1t-1-1q0-1-1-1h-1l-1 1v2zm-1-5h1q1 0 1-1v-2h-2l-1 1q0 1 1 1zm14 7h-7v-2h3v-8l-3 2v-2l3-2h2v10h2zm10 0h-8v-2l4-4q1 0 1-1l1-1q0-1-1-2h-2q-1 1-1 2h-2q0-1 1-2 0-1 1-1 1-1 2-1t2 1q1 0 1 1 1 0 1 2 0 1-1 2 0 1-2 2l-2 2h5zm5 0h-1q-1-1-2-1v-2h2v1h3v-3l-1-1h-2v-2l3-2h-5v-2h7v2l-3 3h2q1 1 1 3v3q-1 0-2 1zm14 0h-2v-2h-6v-3l5-7h2l-5 7v1h4v-3h2zm6 0q-2 0-3-1-1 0-1-2h2q0 1 1 1h2v-4h-2l-1 1h-2v-7h7v2h-5v4q0-1 1-1 0-1 1-1 2 0 3 1v4q0 1-1 2 0 1-2 1m9 0h-2q-1-1-1-2-1-1-1-2t1-2l1-1 2-5h3l-4 6q0-1 1-1h3q1 1 1 2v3l-2 2zm0-2h2v-3q-1-1-2-1l-1 1q-1 0-1 1t1 2zm10 2h-2l4-10h-4v2h-2v-4h8v2zm10 0h-2q-1-1-2-1v-4q1-1 2-1-1 0-1-1-1-1-1-2v-1q1-1 2-1 0-1 2-1 1 0 1 1 1 0 2 1v3q-1 1-2 1 1 1 2 1v2q0 1-1 2t-2 1m0-2h1v-2q0-1-1-1h-1q-1 0-1 1v2zm-1-5h1q1 0 1-1v-2h-3v2zm10 7h-2l4-5-1-1v1q-1 1-2 1t-1-1q-1 0-1-1-1-1-1-2t1-2q0-1 1-1 1-1 2-1t2 1q1 0 2 1v4q0 1-1 2zm0-6q1 0 2-1v-3h-3q-1 1-1 2t1 1q0 1 1 1m10 0q-1 0-1-1-1 0-1-1l1-1h2v2zm0 6h-1l-1-1q0-1 1-1 0-1 1-1l1 1v2zm7 0h-2l3-12h3l3 12h-2l-1-3h-3zm2-8-1 4h3l-1-4v-1l-1-1v2m8 8h-2l3-12h2l3 12h-2v-3h-4zm2-8-1 4h2zv-2 2m8 8h-2v-12h2v5h3v-5h2v12h-2v-5h-3"/><path fill="#adadad" d="M259 269h-1q-1-1-1-2t1-1q0-1 1-1t2 1v3zm10 0h-2v-3q1-1 2-1t1 1q1 0 1 1t-1 2zm9 0h-1q-1-1-1-2t1-1l1-1q1 0 2 1v3z"/><path fill="#141414" d="M108 340q1-1 2-1v-11h-4v1h-1v-3h1v1h11v-1 4-1h-1v-1h-4v11l1 1h1-6m10 0 1-1v-11q0-1-1-1h1q0-1 1-1h1v7-1h4q1 1 1 2v5l1 1h-4 1v-1h1v-4q0-1-1-1v-1h-3v7h1-4m14 0h-2q-1-1-1-2-1-1-1-2t1-2q0-1 1-2h4l1 1v1q0 1-1 1h-4v2q0 1 1 2h3l1-1v1q-1 0-1 1h-2m-2-6h4q0-1-1-1 0-1-1-1t-1 1h-1zm13 6h-1q-1-1-1-2v-5h-1v-1h1l1-1h1v1h3v1h-3v6h3-1q0 1-1 1zm7 0h-2q0-1-1-2t-1-2 1-1q0-1 1-2l1-1h4q1 1 1 2 1 1 1 2t-1 2q0 1-1 2zm1 0q1 0 1-1h1v-5q0-1-1-1l-1-1q-1 0-1 1h-1l-1 1v4l1 1q1 1 2 1m6 0h-1zv-12q0-1-1-1 1 0 1-1h2v10-1h1q0-1 1-1l1-1q0-1-1-1h4-1l-1 1h-1q0 1-1 1 0 1-1 1 1 1 1 2 1 0 1 1 1 0 1 1h2v1h-4v-1h1l-3-3v4h1-3m12 0h-2q0-1-1-2v-4l2-2h3q1 0 1 1v2h-5v2q1 1 1 2h3q1 0 1-1v1l-1 1h-2m-2-6h4q0-1-1-1 0-1-1-1l-1 1zm7 6h-1zv-1h1v-5l-1-1 1-1h1v-1 2q1-1 2-1h1q1 0 2 1 1 0 1 2v4l1 1h-4l1-1v-6h-4v6q1 0 1 1h-3M105 368h-1zq0-1 1-1v-5q0-1-1-1l1-1h1v-1 2q1-1 2-1h2q1 0 1 1 1 0 1 2v4l1 1h-4 1v-7h-4v6q1 0 1 1h1-4m12 0h-1v-1h-1q0-1 1-1 0-1 1-1l2-1v-3h-2v1q-1 0-1 1h-1q0-1 1-1v-1q1 0 1-1h3q1 1 1 2v5h2l-1 1h-1q-1 0-2-1 0 1-1 1zm1-1h1v-2q-1 0-2 1v1zm5 1 1-1v-6h-1 1v-1h1l1-1v2l1-1h3q1 0 1 1 1 0 2-1h2l1 1v6h1v1h1-4q0-1 1-1v-5l-1-1h-2q-1 1-1 2v4q1 0 1 1h-4 1v-1h1v-4q0-1-1-1v-1h-3v6l1 1h-4m19 0h-2q0-1-1-2v-4l2-2h3q1 0 1 1v2h-5v2l2 2h2q1 0 1-1v1l-1 1h-2m-1-6h3q0-1-1-1 0-1-1-1l-1 1-1 1zm8 6h-2v-1q0-1-1-1h1q0 1 1 1 0 1 1 1t1-1v-2h-1l-1-1-1-1v-2q0-1 1-1h3v1q1 0 1 1h-1q0-1-1-1 0-1-1-1l-1 1v1l1 1 2 1q1 1 1 2t-1 2zm10 0h-1l-1-1v-1q1-1 2-1l2-1v-3h-2v1h-1v1h-1v-1l1-1 1-1h3q1 1 1 2l-1 4q0 1 1 1h1v1h-1q-1 0-2-1 0 1-1 1zm1-1h1v-2q-2 0-2 1v1zm5 1 1-1v-5q0-1-1-1 1-1 2-1v-1h1v2q0-1 1-1h2q1 0 1 1 1 0 1 2v4q1 0 1 1h-4 1v-1h1v-4q0-1-1-2h-3v7h1-4m17 0v-1l-1 1h-4q0-1-1-2v-4l2-2h4v-4l-1-1q1 0 1-1h1v13h2v1h-3m-2-1h1q1 0 1-1v-4l-1-1q-1-1-2-1l-1 1-1 1v4q1 0 1 1h2m10 1q0-1 1-1v-5q0-1-1-1l1-1h1v-1 2q1-1 2-1h2q1 0 1 1 1 0 1 2v4l1 1h-4 1v-7h-4v6h1v1h1-4m17 0v-1q-1 1-2 1h-3v-1q-1 0-1-1v-5h-1v-1h3v6q0 1 1 1h2l1-1v-5h-2v-1h4-1v7h2v1h-3m4 0q0-1 1-1v-5q0-1-1-1l1-1h1v-1 2q1 0 2-1h3l1 1 1-1h3q0 1 1 1v6l1 1h-4 1v-1h1v-4q0-1-1-1v-1h-3v6l1 1h-4l1-1v-5q0-1-1-1h-2q-1 1-1 2v4h1v1h1-4m20 0h-4v-12q0-1-1-1h1q0-1 1-1h1v7q0-1 1-1h4q0 1 1 2v4l-2 2zm0 0q1 0 2-1v-1q1-1 1-2t-1-1v-2h-4v6h1zm9 0h-2q0-1-1-2v-4l2-2h3l1 1v2h-5v2q1 1 1 2h3q1 0 1-1v1l-1 1h-2m-2-6h4q0-1-1-1 0-1-1-1l-1 1h-1zm7 6h-1zv-1h1v-5h-1v-1q0-1 1-1h1v-1 2l1-1h2v1h-3M634 189h490v285H634z"/><path fill="#0c0c0c" stroke="#4b4b4b" stroke-width="2" d="M630 185h490v285H630z"/><path fill="none" stroke="#fff" d="M632 467.5V187h485.5"/><path fill="none" stroke="#000" d="M1118 187.5V468H632.5"/><path fill="#d8d8d8" d="m655.6 243.4 7 4.5-7 4.5Z"/><path fill="none" stroke="#4b4b4b" stroke-width="2" d="M679.5 255.9v76m0-42h15.3m-15.3 42h15.3"/><path fill="#d8d8d8" d="M681 253h-3v-10h-3v-2h9v2h-3zm9 0h-2l-2-2v-6q1-1 2-1 1-1 2-1t2 1q1 0 1 1 1 1 1 2v2h-6v2h6q-1 1-2 1-1 1-2 1m-2-5 4-1q0-1-1-1 0-1-1-1t-2 1v2m11 5q-2 0-2-1-1 0-1-2 0-1 1-2t2-1h3q0-1-1-1 0-1-1-1t-1 1h-3q0-1 1-2t3-1 3 1 1 3v6h-2v-2q-1 1-1 2zm1-1 1-1q1 0 1-1v-1h-4v2q1 1 2 1m8 1h-2v-9h2v1-1l1-1q1 0 1 1 1 0 1 1v-1l1-1q1 0 2 1v9h-2v-8h-1v8h-2v-8h-1v8m23 0h-3q0-1-1-2v-9l1-1q1-1 3-1 1 0 2 1 1 0 1 1 1 1 1 2h-3v-1l-1-1q-1 0-2 1v8h3v-2h3q0 2-1 2 0 1-1 2zm8 0h-2v-12h2v4l1-1q0-1 1-1 2 0 3 1t1 3v6h-3v-7q0-1-1-1t-2 1v7m11 0q-2 0-2-1-1 0-1-2 0-1 1-2t2-1h3q0-1-1-1 0-1-1-1t-1 1h-3q0-1 1-2t3-1 3 1 1 3v6h-2v-2q-1 1-1 2zm1-1 1-1q1 0 1-1v-1h-4v2q1 1 2 1m14 1h-3q-1 0-2-1-1 0-1-2v-4h-2v-2h2v-3h2v3h4v2h-4v4q0 1 1 1h3M947 248h-5v-1h5zm12 5h-8v-1h4v-10l-4 2v-1l3-2h2v11h3zm6 0h-2q-1-1-1-2-1 0-1-1v-6q0-1 1-2 0-1 1-1 1-1 2-1t2 1q1 0 1 1 1 1 1 2v6q0 1-1 1 0 1-1 2zm0-1q1 0 2-1v-9h-4v9q1 1 2 1m0-4h-1v-2h2v2zm10 5h-2q-1-1-1-2v-9q0-1 1-1 1-1 2-1t2 1q1 0 2 1v9l-2 2zm0-1q1 0 2-1 1 0 1-1v-6q0-1-1-2h-3q-1 1-1 2v6q0 1 1 1 0 1 1 1m0-4-1-1q0-1 1-1h1v2zm15 5h-8v-1h3v-10l-3 2v-1l3-2h2v11h3zm10 0h-8v-2l4-4 1-1q1-1 1-2t-1-2h-3q-1 1-1 2h-1v-2q1-1 2-1 1-1 2-1t2 1l1 1v4l-2 2-3 4h6zm6 0h-2l-2-2v-1h2v1q1 1 2 1t1-1q1 0 1-1v-1q0-1-1-2h-3v-2l4-3h-5v-1h6v1l-3 3q2 0 2 1 1 1 1 3v2q0 1-1 2zm14 0h-2v-3h-6v-2l5-7h2l-5 7v1h4v-3h2zm6 0q-1 0-2-1-1 0-1-2h1q0 1 1 1 0 1 1 1t2-1v-4q-1-1-2-1l-1 1h-2v-6h7v1h-6v4q1 0 1-1h2q1 0 2 1t1 2v2q0 1-1 2t-3 1m11 0h-3q0-1-1-2v-4q0-1 1-1l3-5h1l-3 5h1q0-1 1-1t2 1q1 0 1 1v4q-1 1-1 2zm0-1q1 0 1-1 1-1 1-2t-1-2h-3q-1 1-1 2t1 2q0 1 2 1m9 1h-1l4-11h-5v2h-1v-3h8v1zm11 0h-2l-1-1q-1-1-1-2t1-2q0-1 2-1l-2-2q-1 0-1-2l1-1q0-1 1-1 1-1 2-1t2 1q1 0 1 1v3l-2 2q1 0 2 1t1 2-1 2-3 1m0-1q1 0 2-1v-2l-1-1-1-1-1 1q-1 0-1 1v2q1 1 2 1m-1-6h1l1-1 1-1q0-1-1-2h-3v3q1 0 1 1m11 7h-2l4-6-1 1h-3q-1-1-1-2-1 0-1-2 0-1 1-2 0-1 1-1 1-1 2-1t2 1q1 0 2 1v4q0 1-1 2zm0-6q1 0 2-1 1 0 1-2 0-1-1-1-1-1-2-1t-2 1v3q1 1 2 1m10 6h-2q-1-1-1-2v-9q0-1 1-1 1-1 2-1t2 1q1 0 2 1v9l-2 2zm0-1q1 0 2-1 1 0 1-1v-6q0-1-1-2h-3q-1 1-1 2v6q0 1 1 1 0 1 1 1m0-4-1-1q0-1 1-1h1v2zM700 295h-2l-1-1q-1-1-1-2v-6q0-1 1-2 0-1 1-1 1-1 2-1t2 1q1 0 1 1 1 1 1 2h-2v-2h-4v9q1 1 2 1t2-1v-3h-2v-1h4v3q0 1-1 1 0 1-1 2zm10 0h-2q-1-1-1-2-1 0-1-1v-3q0-1 1-2 0-1 1-1 1-1 2-1t2 1q1 0 1 1 1 1 1 2v2h-6v1q0 1 1 1 0 1 1 1h2v-1h2q0 1-1 1-1 1-3 1m-2-5h4v-3h-3q-1 1-1 2zm10 5h-1v-9h1v1l1-1q1-1 2-1t2 1 1 3v6h-2v-8h-3q-1 1-1 2zm13 0h-2l-2-2v-6q1-1 2-1 0-1 2-1 1 0 1 1 1 0 2 1v4h-6v1q0 1 1 1 0 1 2 1h1q0-1 1-1h1q0 1-1 1-1 1-2 1m-3-5h5v-1q0-1-1-2h-3q-1 1-1 2zm11 5h-2v-9h2v1l1-1q0-1 1-1 2 0 3 1t1 3h-2v-2h-3q-1 1-1 2zm11 0q-1 0-2-1-1 0-1-2 0-1 1-2h5v-1q0-1-1-2h-2l-1 1h-2l2-2q1-1 2-1 2 0 3 1v9h-1v-2q0 1-1 2zm0-1q2 0 2-1 1 0 1-1v-1h-4l-1 1q0 1 1 2zm15 1h-4l-1-1v-10h-3v-1h4v9q0 1 1 1v1h3"/><path fill="#adadad" d="M943 295h-2v-9h2v1-1q1-1 2-1 2 0 2 1 1 1 1 3v6h-1v-6q0-1-1-2h-3v8m12 0h-2q-1-1-1-2-1 0-1-1v-3q0-1 1-2 0-1 1-1h4q1 0 1 1 1 1 1 2v3q0 1-1 1 0 1-1 2zm0-1q1 0 1-1 1 0 1-1v-3q0-1-1-2h-3v6q1 1 2 1m24 1h-3q-1 0-2-1v-7h-3v-1h3v-3h1v3h4v1h-4v6q0 1 1 1h3zm4 0h-1v-12h1v4h1v-1q1-1 2-1t2 1 1 3v6h-1v-6q0-1-1-2h-3q-1 1-1 2zm11 0h-2v-9h2v1l1-1q0-1 1-1 2 0 3 1t1 3h-2v-2h-3q-1 1-1 2zm12 0h-2q-1-1-1-2-1 0-1-1v-3q0-1 1-2 0-1 1-1 1-1 2-1t2 1q1 0 1 1 1 1 1 2v2h-6v2q1 1 2 1h1l1-1h2q-1 1-2 1-1 1-2 1m-2-5h4v-3h-4v3m11 5q-1 0-2-1-1 0-1-2 0-1 1-2h5v-3h-3l-1 1h-1q0-1 1-2t2-1q2 0 3 1t1 3v6h-2v-2q0 1-1 2zm1-1q1 0 1-1 1 0 1-1v-1h-4v3zm10 1q-2 0-2-1-1-1-1-2v-6q1-1 3-1 1 0 2 1v1-4h2v12h-2v-2 2zm0-1q1 0 2-1v-6h-3q-1 1-1 2v3q0 1 1 1 0 1 1 1m25 1h-8v-1h3v-7h-3v-1h5v8h3zm-4-11h-1v-2h2v2zm9 11q-1 0-2-1t-1-2v-3q0-2 1-3t2-1q2 0 2 1l1 1v-4h1v12h-1v-2q0 1-1 2zm1-1q1 0 1-1 1 0 1-1v-3q0-1-1-2h-3v6q1 1 2 1"/><path fill="#d8d8d8" d="M700 337h-4v-12h6l1 1q1 1 1 2v5q0 1-1 2 0 1-1 2zm-2-11v10h2q1 0 1-1 1-1 1-2v-5q0-1-1-1 0-1-1-1zm12 11h-2q-1-1-1-2-1 0-1-1v-3q0-1 1-2 0-1 1-1 1-1 2-1t2 1q1 0 1 1 1 1 1 2v2h-6v1q0 1 1 1 0 1 1 1h2v-1h2q0 1-1 1-1 1-3 1m-2-5h4v-3h-3q-1 1-1 2zm10 8h-1v-12h1v1l1-1q1-1 2-1t2 1 1 3v5q-1 0-1 1h-4q-1-1-1-2v5m2-4q1 0 2-1v-6h-3q-1 1-1 2v3q0 1 1 1 0 1 1 1m15 1h-5q0-1-1-1v-10h-3v-1h5v10q0 1 1 1h3zm6 0h-2l-2-2v-6q1-1 2-1h4l1 1v6q-1 1-1 2zm0-1q1 0 1-1 1 0 1-1v-3q0-1-1-2h-3v6q1 1 2 1m9 4h-1l1-4-3-8h1l3 5v2-2l2-5h2zm12-3h-3q-1 0-1-1v-1h2q0 1 1 1h1l1-1v-2h-3q-1 0-2-1v-2q0-1 1-2h5q1 1 1 2h-2v-1h-3l-1 1q0 1 1 1h1l1 1h2q1 1 1 2 0 2-1 2-1 1-2 1M948 337h-2q-1 0-2-1-1 0-1-1v-6h-2v-1h2v-3h2v3h3v1h-3v6q0 1 1 1h2zm5 0h-2v-12h2v4l1-1q0-1 1-1 2 0 3 1v9h-1v-6q0-1-1-2h-3v8m10 0h-1v-9h1v1q1 0 1-1 1-1 2-1t2 1 1 3h-1q0-1-1-2h-3q-1 1-1 2zm12 0h-2q0-1-1-2v-6l1-1q1-1 2-1t2 1q1 0 2 1v4h-6v1q0 1 1 1 0 1 1 1h2v-1h2q0 1-1 1-1 1-3 1m-2-5h4v-3h-3q-1 1-1 2zm12 5q-2 0-3-1v-4h6v-1q0-1-1-2h-3v1h-2q0-1 1-2t3-1q1 0 2 1t1 3v6h-1v-2q-1 1-1 2zm0-1q1 0 2-1 1 0 1-1v-1h-5v1q0 1 1 2zm10 1q-1 0-2-1t-1-2v-3q0-2 1-3t2-1 2 1l1 1v-4h1v12h-1v-2q0 1-1 2zm1-1q1 0 1-1 1 0 1-1v-3q0-1-1-2h-3v6q1 1 2 1m24 1h-2v-3h-6v-2l5-7h2l-5 7v1h4v-3h2zm10 0h-7v-2l4-4 1-1v-4h-3q-1 1-1 2h-2q0-1 1-2 0-1 1-1 1-1 2-1t2 1q1 0 1 1 1 1 1 2t-1 2q0 1-1 2l-4 4h6"/><path fill="#141414" d="M427 525h-1v-9h4q1 0 1 1v3l-1 1 2 4h-2l-2-4h-1zm0-8v3h2l1-1v-2h-3m12 8h-5v-9h5v1h-4v3h4v1h-4v3h4zm5 0h-2l-1-1v-1h1l1 1h2l1-1q0-1-1-1v-1h-2l-1-1q-1-1-1-2t1-1q0-1 1-1 0-1 1-1t2 1 1 2h-1q0-1-1-1 0-1-1-1t-1 1q-1 0-1 1l1 1h1l1 1q1 0 1 1 1 1 1 2v1q-1 0-1 1zm8 0h-2q0-1-1-1v-7l1-1q1-1 2-1t1 1q1 0 1 1 1 0 1 1v4q0 1-1 2l-1 1zm0-1h1v-7q0-1-1-1t-1 1q-1 0-1 1v4q0 1 1 2zm11 1h-6v-9h1v8h5zm5 0h-1l-3-9h1l2 6v2l1-1v-1l1-6h2zm10 0h-5v-9h5v1h-4v3h4v1h-4v3h4zm13 0h-2q0-1-1-1v-7l1-1q1-1 2-1t1 1q1 0 1 1 1 0 1 1h-2v-1q0-1-1-1t-1 1q-1 0-1 1v4q0 1 1 2h2v-3h-1v-1h3v2q0 1-1 2l-1 1zm6 0h-1v-9h4q1 0 1 1 1 0 1 1t-1 2q0 1-1 1l2 4h-2l-1-4h-2zm0-8v3h2q1 0 1-1v-2h-3m9 8h-1l-1-1v-7q0-1 1-1l1-1q1 0 2 1l1 1v7q-1 0-1 1zm0-1h2v-7q-1-1-2-1l-1 1v7zm8 1q-1 0-2-1-1 0-1-2v-6h2v8h2q1-1 1-2v-6h1v6q0 2-1 2 0 1-2 1m6 0h-1v-9h5q1 0 1 1v3l-1 1h-4zm0-8v3h4v-3h-4m16 8h-2l3-9h1l3 9h-1l-1-3h-3zm1-6-1 2h3l-1-2v-3q0 1-1 1zm7 6h-1v-9h1l3 8v-8h1v9h-1l-3-8v8m9 0h-3v-9h5l1 1v7q-1 0-1 1zm-1-8v7h1q1 0 1-1 1 0 1-1v-4l-1-1h-2m17 8h-1v-8h-2v-2h6v2h-3zm8 0h-2q0-1-1-1v-7l1-1q1-1 2-1l1 1q1 0 1 1v7l-1 1zm0-1h1v-7l-1-1q-1 0-2 1v7zm6 1h-1v-9h4q1 0 1 1 1 0 1 1t-1 2l-1 1h-3zm0-8v3h3v-3h-3m12 8h-5v-1h2v-7h-2v-1h5v1h-2v7h2zm5 0h-1l-1-1q-1-1-1-2v-4q0-1 1-1 0-1 1-1 0-1 1-1t2 1v1q1 0 1 1h-1q0-1-1-1 0-1-1-1t-1 1q-1 0-1 1v4q0 1 1 2h2q1-1 1-2h1q0 1-1 2v1zm18 0h-5v-1h2v-7h-2v-1h5v1h-2v7h2zm5 0h-2v-9h4l1 1v7q-1 0-1 1zm-1-8v7h1q1 0 1-1 1 0 1-1v-4l-1-1h-2m9 8h-1q-1 0-1-1l-1-1h1l1 1h3v-2l-1-1h-1q-1-1-2-1-1-1-1-2t1-1q0-1 1-1 0-1 1-1 2 0 2 1 1 1 1 2h-1q0-1-1-1 0-1-1-1l-1 1v2h1l1 1q1 0 2 1v3q-1 0-1 1zm14 0h-1v-10h6v2h-5v3h4v1h-4zm8 0h-1v-9h4q1 0 1 1 1 0 1 1t-1 2q0 1-1 1l2 4h-2l-1-4h-2zm0-8v3h2q1 0 1-1v-2h-3m9 8h-1l-1-1v-7q0-1 1-1l1-1q1 0 2 1l1 1v7q-1 0-1 1zm0-1h2v-7q-1-1-2-1l-1 1v7zm6 1h-1v-9h2l1 3v1-1h1l1-3h1v9h-1v-9l-1 5h-1l-2-5v9m16 0h-1l2-9h2l2 9h-1l-1-3h-3zm1-6v2h2l-1-2v-3 1q0 1-1 2m17 6h-3v-9h4q1 1 1 2v1q0 1-1 1 1 0 1 1v3l-1 1zm-2-4v3h3v-3h-3m0-4v3h1q1 0 2-1v-2h-3m9 8h-1l-1-1q-1-1-1-2v-4q0-1 1-1 0-1 1-1 0-1 1-1t2 1l1 1v7q-1 0-1 1zm0-1h1q1-1 1-2v-4q0-1-1-1 0-1-1-1t-1 1v7zm9 1h-2v-8h-2v-2h6v2h-2zm15 0h-1v-8h-3v-2h7v2h-3zm7 0h-1l-1-1v-7q0-1 1-1l1-1q1 0 2 1l1 1v7q-1 0-1 1zm0-1h2v-7q-1-1-2-1l-1 1v7zm7 1h-2v-9h2v4h1l2-4h1l-2 4 3 5h-2l-2-4h-1zm12 0h-6v-9h6v1h-4v3h3v1h-3v3h4zm3 0h-1v-9h2l3 8q0-1-1-1v-7h2v9h-2l-3-8v8m10 0h-1v-2h1l1 1q0 1-1 1"/><path fill="url(#a)" d="M0 0h1200v630H0z" opacity=".4" style="mix-blend-mode:multiply;pointer-events:none"/><path d="M0 0h1200v630H0z" filter="url(#b)" style="mix-blend-mode:overlay;pointer-events:none"/></svg>